:SAMPLES-PER-SECOND 30
:FULLY-SPECIFIED
:DEGREES
917
root  54.9997 39.0792 0.139154 69.4887 -87.9142 -70.3757
RightUpLeg  -4.81553 -8.29936 -1.36356
RightLeg  10.0382 2.98968 2.37489
RightFoot  -5.07284 -0.0769428 0.78121
RightToes  2.96859e-009 0 -3.6325e-017
Spine  7.42163 -3.57966 4.2325
Spine1  6.26009 -3.88658 2.78293
HEad  -22.9533 -8.79716 -0.0167478
LeftShoulder1  0.19442 2.95947 -29.6556
LeftArm  -7.35949 8.13634 -42.3944
LeftForeArm  27.7115 -12.2787 -5.89565
LeftHand  0.0153704 2.62437 -1.25511
RightShoulder  -0.636719 -5.46025 25.8257
RightArm  4.43244 -6.05498 43.1539
RightForeArm  -0.307694 25.7662 5.54461
RightHand  -0.676706 3.28415 -9.28187
LeftUpLeg  -2.29252 6.89496 11.3653
LeftLeg  20.9448 2.73739 1.49164
LeftFoot  -11.2446 0.0685479 -1.40172
LeftToes  3.24686e-010 -7.02549e-012 1.39809e-011
918
root  54.4995 39.0707 -0.19118 96.9798 -88.5368 -98.3799
RightUpLeg  -3.94482 -8.1668 -1.21139
RightLeg  10.9042 3.79962 2.02912
RightFoot  -6.26091 -0.0587025 0.373526
RightToes  2.96859e-009 0 -3.6325e-017
Spine  6.99135 -3.24987 5.7982
Spine1  6.61585 -3.07008 1.38878
HEad  -21.3247 -10.1926 -0.508375
LeftShoulder1  0.235669 2.83596 -29.1746
LeftArm  -6.60646 8.58983 -42.5791
LeftForeArm  26.5234 -13.3651 -5.74207
LeftHand  -0.0015707 2.9259 -0.709578
RightShoulder  -0.565305 -5.26477 25.3482
RightArm  4.02502 -5.39897 42.8237
RightForeArm  0.2335 25.4718 5.45039
RightHand  -0.687988 3.27448 -9.44482
LeftUpLeg  -4.48084 1.71469 9.30995
LeftLeg  24.0155 -0.534956 0.0828213
LeftFoot  -11.8373 0.0604596 -2.59736
LeftToes  3.24686e-010 -7.02549e-012 1.39809e-011
919
root  53.993 39.054 -0.467779 127.634 -88.9414 -129.198
RightUpLeg  -3.33654 -8.18072 -1.31623
RightLeg  11.6334 4.26031 1.64396
RightFoot  -7.50317 -0.059669 0.262808
RightToes  2.96859e-009 0 -3.6325e-017
Spine  7.09763 -3.01342 7.32472
Spine1  6.05521 -2.3753 0.0379038
HEad  -20.9547 -10.7515 -1.21337
LeftShoulder1  0.0484019 3.36832 -29.469
LeftArm  -4.70309 8.91558 -42.0359
LeftForeArm  24.8191 -15.4356 -5.4046
LeftHand  0.00211415 2.0668 -0.459246
RightShoulder  -0.588219 -5.34982 25.1128
RightArm  5.1243 -5.02378 42.1139
RightForeArm  -0.228985 25.3883 5.45532
RightHand  -0.649411 2.86826 -9.3348
LeftUpLeg  -7.17061 -3.49344 6.97536
LeftLeg  26.5938 -0.994155 -0.20807
LeftFoot  -11.7183 0.0606047 -2.89649
LeftToes  3.24686e-010 -7.02549e-012 1.39809e-011
920
root  53.4628 39.0441 -0.764069 158.792 -88.4967 -160.529
RightUpLeg  -2.47418 -8.09662 -1.18764
RightLeg  11.9299 4.9021 1.45739
RightFoot  -8.52225 -0.0575265 -0.0148179
RightToes  2.96859e-009 0 -3.6325e-017
Spine  5.93328 -2.46534 8.51135
Spine1  7.42102 -1.58217 -0.932357
HEad  -21.4898 -10.239 -2.04915
LeftShoulder1  0.0550644 3.35035 -29.7656
LeftArm  -3.12615 9.34325 -41.8717
LeftForeArm  22.0453 -18.0414 -4.72558
LeftHand  -0.0119105 2.59805 -0.10197
RightShoulder  -0.536579 -5.21308 24.6061
RightArm  6.07648 -4.36462 41.8778
RightForeArm  -0.9366 25.0614 5.41752
RightHand  -0.605346 2.89323 -8.70612
LeftUpLeg  -9.67449 -6.38845 5.39936
LeftLeg  28.3394 -0.641307 -0.0407792
LeftFoot  -11.3139 0.068382 -2.53123
LeftToes  3.24686e-010 -7.02549e-012 1.39809e-011
921
root  52.9225 39.0495 -1.05986 174.883 -87.2494 -176.908
RightUpLeg  -1.35509 -8.1881 -1.1753
RightLeg  11.9506 6.22633 1.64917
RightFoot  -9.29199 -0.0537018 -0.511142
RightToes  2.96859e-009 0 -3.6325e-017
Spine  6.19447 -1.8905 9.76405
Spine1  7.12256 -0.607045 -2.37909
HEad  -20.7364 -8.94713 -3.2061
LeftShoulder1  -0.0169224 3.55107 -29.8683
LeftArm  -2.16112 10.298 -41.5806
LeftForeArm  19.474 -20.4123 -4.21416
LeftHand  -0.0233521 2.09022 0.412548
RightShoulder  -0.528662 -5.18328 24.6775
RightArm  8.82609 -3.70013 41.5524
RightForeArm  -2.62844 24.2134 5.30937
RightHand  -0.631282 3.4366 -8.53854
LeftUpLeg  -11.5424 -7.34459 4.06876
LeftLeg  28.6091 0.445528 0.59433
LeftFoot  -10.9697 0.0737798 -2.41606
LeftToes  3.24686e-010 -7.02549e-012 1.39809e-011
